first trial
nRows=4
nColumns=179

# SIMM Motion File Header:
name first trial
datacolumns 179
datarows 4
otherdata 1
endheader
time	pelvis_tx	pelvis_ty	pelvis_tz	pelvis_list	pelvis_rotation	pelvis_tilt	hip_flexion_r	hip_adduction_r	hip_rotation_r	knee_angle_r	ankle_angle_r	hip_flexion_l	hip_adduction_l	hip_rotation_l	knee_angle_l	ankle_angle_l	lumbar_extension	lumbar_bending	lumbar_rotation	arm_add_r	arm_rot_r	arm_flex_r	elbow_flex_r	pro_sup_r	wrist_dev_r	wrist_flex_r	arm_add_l	arm_rot_l	arm_flex_l	elbow_flex_l	pro_sup_l	wrist_dev_l	wrist_flex_l	subtalar_angle_r	mtp_angle_r	subtalar_angle_l	mtp_angle_l	R.ASIS_tx	R.ASIS_ty	R.ASIS_tz	L.ASIS_tx	L.ASIS_ty	L.ASIS_tz	V.Sacral_tx	V.Sacral_ty	V.Sacral_tz	R.Thigh.Upper_tx	R.Thigh.Upper_ty	R.Thigh.Upper_tz	R.Thigh.Front_tx	R.Thigh.Front_ty	R.Thigh.Front_tz	R.Thigh.Rear_tx	R.Thigh.Rear_ty	R.Thigh.Rear_tz	L.Thigh.Upper_tx	L.Thigh.Upper_ty	L.Thigh.Upper_tz	L.Thigh.Front_tx	L.Thigh.Front_ty	L.Thigh.Front_tz	L.Thigh.Rear_tx	L.Thigh.Rear_ty	L.Thigh.Rear_tz	R.Shank.Upper_tx	R.Shank.Upper_ty	R.Shank.Upper_tz	R.Shank.Front_tx	R.Shank.Front_ty	R.Shank.Front_tz	R.Shank.Rear_tx	R.Shank.Rear_ty	R.Shank.Rear_tz	L.Shank.Upper_tx	L.Shank.Upper_ty	L.Shank.Upper_tz	L.Shank.Front_tx	L.Shank.Front_ty	L.Shank.Front_tz	L.Shank.Rear_tx	L.Shank.Rear_ty	L.Shank.Rear_tz	R.Heel_tx	R.Heel_ty	R.Heel_tz	R.Midfoot.Sup_tx	R.Midfoot.Sup_ty	R.Midfoot.Sup_tz	R.Midfoot.Lat_tx	R.Midfoot.Lat_ty	R.Midfoot.Lat_tz	R.Toe.Tip_tx	R.Toe.Tip_ty	R.Toe.Tip_tz	L.Heel_tx	L.Heel_ty	L.Heel_tz	L.Midfoot.Sup_tx	L.Midfoot.Sup_ty	L.Midfoot.Sup_tz	L.Midfoot.Lat_tx	L.Midfoot.Lat_ty	L.Midfoot.Lat_tz	L.Toe.Tip_tx	L.Toe.Tip_ty	L.Toe.Tip_tz	Sternum_tx	Sternum_ty	Sternum_tz	R.Acromium_tx	R.Acromium_ty	R.Acromium_tz	L.Acromium_tx	L.Acromium_ty	L.Acromium_tz	R.Bicep_tx	R.Bicep_ty	R.Bicep_tz	L.Bicep_tx	L.Bicep_ty	L.Bicep_tz	R.Elbow_tx	R.Elbow_ty	R.Elbow_tz	L.Elbow_tx	L.Elbow_ty	L.Elbow_tz	R.Wrist.Med_tx	R.Wrist.Med_ty	R.Wrist.Med_tz	R.Wrist.Lat_tx	R.Wrist.Lat_ty	R.Wrist.Lat_tz	L.Wrist.Med_tx	L.Wrist.Med_ty	L.Wrist.Med_tz	L.Wrist.Lat_tx	L.Wrist.Lat_ty	L.Wrist.Lat_tz	R.Toe.Lat_tx	R.Toe.Lat_ty	R.Toe.Lat_tz	R.Toe.Med_tx	R.Toe.Med_ty	R.Toe.Med_tz	L.Toe.Lat_tx	L.Toe.Lat_ty	L.Toe.Lat_tz	L.Toe.Med_tx	L.Toe.Med_ty	L.Toe.Med_tz	R.Temple_tx	R.Temple_ty	R.Temple_tz	L.Temple_tx	L.Temple_ty	L.Temple_tz	Top.Head_tx	Top.Head_ty	Top.Head_tz	ground_force_vx	ground_force_vy	ground_force_vz	ground_force_px	ground_force_py	ground_force_pz	ground_force_vx	ground_force_vy	ground_force_vz	ground_force_px	ground_force_py	ground_force_pz	ground_torque_x	ground_torque_y	ground_torque_z	ground_torque_x	ground_torque_y	ground_torque_z
      1.60000000	      0.58934499	      1.04333640	     -0.00796607	     -1.19846642	     -0.19754394	     11.38942559	     12.12723958	     -4.33784918	     -6.97175007	    -64.97046172	      3.64857355	     -7.81706805	      1.91980397	     -2.26642295	    -12.19662095	      8.55023366	    -25.22873937	      1.60320125	    -14.10412737	     -9.92817799	     46.25286741	     13.41890042	      0.00000000	     71.89667578	      0.00000000	      0.00000000	    -11.77784645	    -31.63116684	     18.92632002	      0.00000000	     90.00000018	      0.00000000	     -4.12529612	      0.00000000	      0.00000000	      0.00000000	      0.00000000	      0.60787762	      1.09068884	      0.12227451	      0.61859406	      1.06889197	     -0.13811220	      0.41396741	      1.07324951	     -0.00075386	      0.66526282	      0.78227783	      0.19352606	      0.74927521	      0.74127448	      0.11159220	      0.69983679	      0.66529834	      0.19518982	      0.55843549	      0.76393811	     -0.17792433	      0.64775983	      0.72717139	     -0.10977156	      0.55466943	      0.65455798	     -0.15542224	      0.63391754	      0.52770435	      0.18213773	      0.68350415	      0.45226901	      0.13973322	      0.59744794	      0.44879288	      0.18845866	      0.53238507	      0.43955505	     -0.14248677	      0.57578870	      0.38920929	     -0.08565297	      0.51025751	      0.39699246	     -0.14767802	      0.36930103	      0.24122046	      0.08422096	      0.49343384	      0.16106473	      0.07657615	      0.45919748	      0.15515944	      0.17613658	      0.58428369	      0.05533744	      0.13348772	      0.41866721	      0.07694257	     -0.04496015	      0.58837726	      0.07464948	     -0.01104171	      0.57406036	      0.06903747	     -0.11095462	      0.70095093	      0.04928849	     -0.04183063	      0.63283942	      1.38899854	     -0.02007845	      0.51763251	      1.48280188	      0.17863786	      0.57924310	      1.49304834	     -0.23554439	      0.50473508	      1.28611877	      0.23335013	      0.62729999	      1.25696326	     -0.25183081	      0.45071304	      1.18951733	      0.26213968	      0.59551154	      1.15329016	     -0.29043066	      0.56719891	      0.94723669	      0.28026953	      0.52021667	      0.93901123	      0.32639505	      0.74105292	      0.95472388	     -0.21861577	      0.70566724	      0.93259296	     -0.28250378	      0.51200421	      0.08190065	      0.20086646	      0.54626990	      0.08328360	      0.09514597	      0.63706628	      0.04193570	     -0.11838514	      0.65057428	      0.05047874	     -0.01711728	      0.69042664	      1.61646753	      0.05939425	      0.70713495	      1.61906689	     -0.07863651	      0.69092438	      1.79331592	     -0.00502905	      0.00000000	      0.00000000	      0.00000000	      0.48435765	     -0.00750000	      0.10865206	    -21.52239253	    572.41500162	     29.83494851	      0.57574851	     -0.00750000	     -0.05899056	      0.00000000	      0.00000000	      0.00000000	      0.00000000	      3.36970386	      0.00000000
      1.61700000	      0.58659703	      1.04308495	     -0.00922963	     -1.18576616	      0.09401303	     11.24751626	     13.62224933	     -4.18211942	     -7.21650263	    -61.67018515	      3.92212591	     -9.27038476	      1.95905893	     -1.91514525	    -10.96480261	      8.81696591	    -25.12302027	      1.86750373	    -14.37029832	     -9.85241754	     45.52684194	     13.07329364	      0.00000000	     71.46199144	      0.00000000	      0.00000000	    -11.88347864	    -32.85941949	     20.19648273	      0.00000000	     90.00000018	      0.00000000	     -4.18259190	      0.00000000	      0.00000000	      0.00000000	      0.00000000	      0.60554309	      1.09026147	      0.12062789	      0.61481250	      1.06794934	     -0.13928740	      0.41151007	      1.07299207	     -0.00079608	      0.66715851	      0.78508118	      0.19203299	      0.75221088	      0.74585742	      0.10887255	      0.70487140	      0.66844141	      0.19300806	      0.54928113	      0.76386761	     -0.17894116	      0.63571204	      0.72501563	     -0.11036151	      0.54393726	      0.65451434	     -0.15636047	      0.64368237	      0.52597125	      0.18065326	      0.69925146	      0.45534586	      0.13765758	      0.61285669	      0.44470953	      0.18741226	      0.51683423	      0.43938010	     -0.14290540	      0.56029895	      0.38917377	     -0.08674700	      0.49448190	      0.39722995	     -0.14788547	      0.40156735	      0.21851128	      0.08474643	      0.53223962	      0.14949417	      0.07663715	      0.49925064	      0.14071983	      0.17649466	      0.63176263	      0.05223286	      0.13373021	      0.39998239	      0.07713556	     -0.04531550	      0.56916699	      0.07416371	     -0.00962927	      0.55478278	      0.06904930	     -0.11121681	      0.68201520	      0.04890670	     -0.04193581	      0.63202374	      1.38799561	     -0.02110272	      0.51654224	      1.48110254	      0.17839081	      0.57851062	      1.49331641	     -0.23610205	      0.50138800	      1.28545142	      0.23219640	      0.62810242	      1.25762366	     -0.25218121	      0.44542609	      1.18948206	      0.26028711	      0.59696661	      1.15322131	     -0.29058499	      0.56176300	      0.94637756	      0.27910989	      0.51324432	      0.93809656	      0.32410403	      0.74995740	      0.96207294	     -0.21722600	      0.71505994	      0.93663629	     -0.27856876	      0.55686780	      0.07206673	      0.20086882	      0.59045386	      0.07672038	      0.09596174	      0.61810663	      0.04179149	     -0.11865975	      0.63131146	      0.04995323	     -0.01721669	      0.68984534	      1.61621326	      0.05951715	      0.70636194	      1.61913611	     -0.07862150	      0.68899316	      1.79301404	     -0.00465875	      0.00000000	      0.00000000	      0.00000000	      0.51039770	     -0.00750000	      0.10728650	    -16.73616954	    579.40702124	     29.47983259	      0.56099033	     -0.00750000	     -0.05843948	      0.00000000	      0.00000000	      0.00000000	      0.00000000	      3.18180358	      0.00000000
      1.63300000	      0.58472240	      1.04174977	     -0.01011740	     -1.29983721	      0.18489399	     10.84698970	     15.09634019	     -3.95877160	     -7.55829433	    -57.71209992	      4.20396937	    -10.34896665	      1.87475893	     -1.94093021	    -10.09473282	      9.40898551	    -24.50689107	      2.17608956	    -14.47884531	     -9.91205751	     44.51517533	     12.56627635	      0.00000000	     73.93722884	      0.00000000	      0.00000000	    -11.90073953	    -33.07706549	     21.13648196	      0.00000000	     90.00000018	      0.00000000	     -4.23988768	      0.00000000	      0.00000000	      0.00000000	      0.00000000	      0.60393372	      1.08913538	      0.11951635	      0.61293011	      1.06528894	     -0.14017496	      0.40901688	      1.07249585	     -0.00102181	      0.66846130	      0.78593903	      0.19088106	      0.75442401	      0.74960522	      0.10644052	      0.70992358	      0.67031848	      0.19106738	      0.54059308	      0.76360345	     -0.17992149	      0.62916113	      0.72296967	     -0.11265733	      0.53250409	      0.65414813	     -0.15575642	      0.65088312	      0.52422046	      0.17900328	      0.71361151	      0.45699216	      0.13664886	      0.62872064	      0.43993689	      0.18661079	      0.50143478	      0.43884308	     -0.14258572	      0.54494269	      0.38790430	     -0.08657836	      0.47896487	      0.39745175	     -0.14802130	      0.43625043	      0.19438336	      0.08487849	      0.57281891	      0.13793303	      0.07721144	      0.54070508	      0.12648740	      0.17715926	      0.68054291	      0.05062259	      0.13545329	      0.38153406	      0.07723193	     -0.04543572	      0.55000293	      0.07368589	     -0.00939322	      0.53600232	      0.06817527	     -0.11152926	      0.66291962	      0.04851307	     -0.04207316	      0.63002924	      1.38655017	     -0.02154572	      0.51488611	      1.48021790	      0.17816081	      0.57777747	      1.49328943	     -0.23554468	      0.49769519	      1.28410876	      0.23117772	      0.62844238	      1.25793115	     -0.25284811	      0.44059073	      1.18892004	      0.25854300	      0.59843341	      1.15352783	     -0.29102417	      0.55333038	      0.94483093	      0.27682901	      0.50752142	      0.93728400	      0.32196112	      0.75767273	      0.96793225	     -0.21417039	      0.72418573	      0.94081653	     -0.27597409	      0.60451276	      0.06343764	      0.20202013	      0.63667926	      0.07103918	      0.09780803	      0.59922290	      0.04165376	     -0.11895460	      0.61194861	      0.04943161	     -0.01732701	      0.68904492	      1.61538342	      0.06002588	      0.70650110	      1.61851794	     -0.07781728	      0.68702917	      1.79267383	     -0.00337511	      0.00000000	      0.00000000	      0.00000000	      0.53515309	     -0.00750000	      0.10604908	    -12.95224070	    589.42655010	     28.84286840	      0.54684548	     -0.00750000	     -0.05813818	      0.00000000	      0.00000000	      0.00000000	      0.00000000	      3.09111380	      0.00000000
      1.65000000	      0.58248987	      1.04027042	     -0.01097442	     -1.07105712	      0.06271515	     10.60205755	     16.16956334	     -4.14605332	     -7.88380997	    -53.12847895	      4.44189555	    -11.75075096	      2.21930829	     -2.08178274	     -8.84042729	      9.68923779	    -24.16317923	      2.09580742	    -14.40711524	     -9.85562678	     43.60098250	     12.32963673	      0.00000000	     73.31125243	      0.00000000	      0.00000000	    -11.94646627	    -33.54317493	     22.22347594	      0.00000000	     90.00000018	      0.00000000	     -4.29718346	      0.00000000	      0.00000000	      0.00000000	      0.00000000	      0.60101624	      1.08703516	      0.11872551	      0.61071021	      1.06377942	     -0.14084731	      0.40669342	      1.07172485	     -0.00137992	      0.66926520	      0.78717059	      0.18950008	      0.75389893	      0.75072375	      0.10364861	      0.71143640	      0.67197638	      0.18955865	      0.53239191	      0.76311194	     -0.18073022	      0.61998083	      0.72061829	     -0.11420196	      0.52187195	      0.65341998	     -0.15633449	      0.65834808	      0.51930975	      0.17613972	      0.72481531	      0.45726785	      0.13518399	      0.64204926	      0.43370764	      0.18492302	      0.48652628	      0.43884958	     -0.14271501	      0.52939087	      0.38753299	     -0.08697312	      0.46366592	      0.39766428	     -0.14812589	      0.47350674	      0.16979311	      0.08460143	      0.61489154	      0.12718807	      0.07833787	      0.58339050	      0.11317432	      0.17820348	      0.72998334	      0.05104027	      0.13867064	      0.36314011	      0.07724314	     -0.04512804	      0.53056433	      0.07315990	     -0.01297877	      0.51830786	      0.06546133	     -0.11178403	      0.64374939	      0.04817178	     -0.04223812	      0.62929065	      1.38520557	     -0.02135299	      0.51353296	      1.47831506	      0.17842934	      0.57653149	      1.49226904	     -0.23490042	      0.49570804	      1.28266785	      0.23037895	      0.62845825	      1.25762744	     -0.25309518	      0.43631451	      1.18781458	      0.25700528	      0.59951410	      1.15271399	     -0.29172446	      0.55034235	      0.94379071	      0.27596570	      0.50266211	      0.93567615	      0.31984976	      0.76540375	      0.97444733	     -0.21140816	      0.73278394	      0.94518665	     -0.27357462	      0.65394720	      0.05763544	      0.20541045	      0.68436469	      0.06685820	      0.10060151	      0.58041412	      0.04159339	     -0.11927572	      0.59275830	      0.04909647	     -0.01749720	      0.68803149	      1.61446716	      0.06066189	      0.70508032	      1.61802173	     -0.07762988	      0.68491095	      1.79170532	     -0.00241395	      0.00000000	      0.00000000	      0.00000000	      0.56131480	     -0.00750000	      0.10479791	     -6.97349693	    599.23818134	     28.21552639	      0.53156032	     -0.00750000	     -0.05740004	      0.00000000	      0.00000000	      0.00000000	      0.00000000	      2.51052898	      0.00000000
